PathFileType	4	(X/Y/Z)	 s06c0001.trc
DataRate	CameraRate	NumFrames	NumMarkers	Units	OrigDataRate	OrigDataStartFrame	OrigNumFrames
200	200	7	49	mm	200	751	2000
Frame#	Time	racr			lacr			c7			jug			rlel			rdr			llel			ldr			s2			lic			ric			lasi			rasi			rpsi			lpsi			rgt			lgt			rth1			rth2			rth3			rth4			rlfc			rmfc			rsh1			rsh2			rsh3			rsh4			rlmal			rmmal			rcal			rtoe			rmt5			rmt1			lth1			lth2			lth4			lth3			llfc			lmfc			llmal			lmmal			lcal			lmt1			lmt5			lsh1			lsh2			lsh3			lsh4			ltoe			
		X1	Y1	Z1	X2	Y2	Z2	X3	Y3	Z3	X4	Y4	Z4	X5	Y5	Z5	X6	Y6	Z6	X7	Y7	Z7	X8	Y8	Z8	X9	Y9	Z9	X10	Y10	Z10	X11	Y11	Z11	X12	Y12	Z12	X13	Y13	Z13	X14	Y14	Z14	X15	Y15	Z15	X16	Y16	Z16	X17	Y17	Z17	X18	Y18	Z18	X19	Y19	Z19	X20	Y20	Z20	X21	Y21	Z21	X22	Y22	Z22	X23	Y23	Z23	X24	Y24	Z24	X25	Y25	Z25	X26	Y26	Z26	X27	Y27	Z27	X28	Y28	Z28	X29	Y29	Z29	X30	Y30	Z30	X31	Y31	Z31	X32	Y32	Z32	X33	Y33	Z33	X34	Y34	Z34	X35	Y35	Z35	X36	Y36	Z36	X37	Y37	Z37	X38	Y38	Z38	X39	Y39	Z39	X40	Y40	Z40	X41	Y41	Z41	X42	Y42	Z42	X43	Y43	Z43	X44	Y44	Z44	X45	Y45	Z45	X46	Y46	Z46	X47	Y47	Z47	X48	Y48	Z48	X49	Y49	Z49	
751	3.7550	228.888772	1417.423231	398.168190	231.686487	1429.276753	43.835849	193.255939	1490.240691	218.155591	313.947357	1395.303506	224.527833	249.327876	1200.394525	576.648835	350.626483	1042.445859	767.688057	238.225427	1207.466447	-127.837106	334.925076	1070.182772	-328.548181	117.962005	964.788943	230.281697	270.169958	1008.178290	51.271048	280.796695	986.469103	388.712115	322.686256	954.980166	80.406032	335.051139	945.052635	350.783311	142.078710	998.338267	257.517174	128.989960	995.416511	193.969632	243.374713	871.546564	401.164966	248.517951	896.557498	28.039474	252.598454	749.549961	420.519397	260.623198	659.839467	413.826659	224.260599	582.023278	400.121141	297.159066	655.333601	404.468274	206.296360	473.445230	380.469035	221.218945	450.288692	272.167696	175.215711	353.326610	401.935201	188.759152	267.678362	382.007551	160.098694	186.643947	370.619262	217.283885	269.703147	354.582054	154.772051	99.827177	358.325741	199.946225	121.988505	273.173123	109.537696	65.749025	297.036449	382.184095	75.467704	334.596618	280.696384	43.229282	392.386545	303.982407	59.679306	276.963378	231.787532	764.052630	12.342392	245.314206	677.880845	17.355916	281.589776	674.265199	25.885336	212.825395	595.378745	29.531256	183.454721	477.252664	49.858559	204.436993	455.812586	159.827649	154.689652	99.284919	56.062160	171.155097	121.974202	141.120770	100.988010	58.900655	110.549225	310.784242	52.324678	132.992483	290.145032	51.072263	17.890906	160.850271	370.893908	23.958059	177.947586	285.990321	36.945883	150.468186	202.234512	37.984880	208.646595	286.294100	61.573114	380.373604	71.490405	69.484774	
752	3.7600	228.884475	1417.430286	398.171856	231.701334	1429.293039	43.834044	193.284785	1490.259310	218.128106	313.944825	1395.302441	224.537422	249.321458	1200.386349	576.649863	350.637207	1042.407971	767.658812	238.234853	1207.461122	-127.831217	334.907938	1070.186853	-328.534062	117.961416	964.792520	230.281472	270.182244	1008.179765	51.290759	280.796724	986.464682	388.703114	322.700371	954.977030	80.417495	335.070191	945.053539	350.795077	142.077624	998.327145	257.533062	128.975154	995.411186	193.965765	243.387736	871.556683	401.153250	248.514575	896.555559	28.042686	252.594339	749.546177	420.527805	260.623232	659.838352	413.818552	224.255808	582.038890	400.135686	297.172253	655.334120	404.482282	206.290320	473.441944	380.461053	221.217103	450.290347	272.166361	175.216734	353.315407	401.938672	188.751909	267.663748	382.015306	160.091351	186.626071	370.617154	217.289348	269.693045	354.577678	154.790608	99.831296	358.325790	199.972444	122.019658	273.192603	109.522083	65.727528	297.049866	382.192184	75.462014	334.589608	280.694371	43.218278	392.386297	303.991921	59.681362	276.969302	231.809658	764.052786	12.347154	245.332107	677.889844	17.358506	281.581325	674.288610	25.847927	212.839435	595.379540	29.536572	183.468000	477.261049	49.848621	204.467683	455.824994	159.839815	154.681232	99.281968	56.054042	171.157942	121.971571	141.111070	100.988624	58.891564	110.539150	310.768196	52.340115	132.993412	290.132304	51.061498	17.882635	160.855221	370.878959	23.973304	177.957860	285.995069	36.937167	150.468604	202.235234	37.982964	208.644360	286.296433	61.568942	380.379839	71.492587	69.485984	
753	3.7650	228.859274	1417.430126	398.181484	231.674045	1429.279989	43.838344	193.259035	1490.256772	218.151332	313.938333	1395.311591	224.555555	249.312992	1200.381661	576.643453	350.632346	1042.401039	767.649299	238.234061	1207.450209	-127.827841	334.912044	1070.178443	-328.542571	117.961535	964.784677	230.292627	270.189001	1008.166119	51.285043	280.779101	986.471201	388.704201	322.706882	954.969546	80.429267	335.072262	945.055789	350.798940	142.123599	998.355949	257.519498	128.985346	995.414745	193.972136	243.357203	871.557894	401.153800	248.516079	896.553781	28.050270	252.591856	749.553316	420.528084	260.617697	659.858220	413.828065	224.251641	582.035001	400.128967	297.177684	655.333801	404.471535	206.259041	473.476848	380.454306	221.200981	450.284430	272.155903	175.216012	353.331695	401.929014	188.753715	267.673665	382.032603	160.093706	186.625810	370.621191	217.293395	269.699020	354.610878	154.769700	99.834709	358.308673	199.969980	122.020928	273.187056	109.537504	65.735184	297.046429	382.197868	75.470897	334.586559	280.691950	43.219673	392.383321	303.979692	59.689008	276.978395	231.793790	764.042590	12.337276	245.332584	677.875754	17.354350	281.581344	674.277345	25.846004	212.837176	595.374170	29.543575	183.479246	477.257444	49.846414	204.435392	455.816413	159.828140	154.685837	99.289557	56.045535	171.155829	121.973065	141.121072	100.976722	58.875856	110.535282	310.764513	52.327643	132.994394	290.135623	51.065484	17.893270	160.854073	370.895656	23.965701	177.973225	285.975469	36.948853	150.474336	202.239229	37.990624	208.664129	286.282794	61.579451	380.370239	71.509410	69.492174	
754	3.7700	228.856632	1417.432332	398.166963	231.686951	1429.278022	43.825134	193.269480	1490.248719	218.122426	313.933275	1395.306795	224.553642	249.303209	1200.377012	576.650627	350.616018	1042.424839	767.662513	238.241519	1207.444049	-127.820212	334.923812	1070.164843	-328.542767	117.968693	964.781200	230.292328	270.181583	1008.183163	51.286801	280.784910	986.459480	388.703242	322.701322	954.978365	80.441617	335.054445	945.039940	350.804644	142.094768	998.328583	257.536961	128.982549	995.458165	193.987782	243.381215	871.557908	401.151314	248.543786	896.558875	28.052890	252.596208	749.538846	420.536481	260.630738	659.843386	413.835877	224.239177	582.049589	400.127905	297.161729	655.339732	404.480239	206.281475	473.485270	380.445630	221.204700	450.279636	272.177934	175.211207	353.353602	401.924808	188.749590	267.674626	382.025746	160.095401	186.623134	370.631262	217.262323	269.698247	354.603559	154.766084	99.796485	358.343078	199.949320	122.002366	273.200370	109.537501	65.735182	297.046429	382.189239	75.468913	334.587367	280.683135	43.228721	392.404176	303.969126	59.690943	276.955757	231.797809	764.056401	12.346901	245.325333	677.878165	17.346793	281.594632	674.278983	25.842784	212.846826	595.380759	29.532980	183.469269	477.263888	49.846962	204.452801	455.822122	159.843596	154.676835	99.286060	56.048965	171.155828	121.973068	141.121076	100.967815	58.902296	110.530067	310.758771	52.328557	132.982785	290.127984	51.060314	17.905105	160.852613	370.892310	23.947115	177.971629	285.986471	36.926207	150.476842	202.235817	37.980759	208.647081	286.278475	61.548953	380.376588	71.500808	69.499103	
755	3.7750	228.855744	1417.435472	398.170007	231.684270	1429.284542	43.843551	193.237321	1490.239231	218.173608	313.928891	1395.311174	224.549355	249.297609	1200.372513	576.631641	350.619663	1042.427070	767.662847	238.243843	1207.442755	-127.802291	334.939424	1070.172962	-328.540450	117.959014	964.796214	230.292882	270.196241	1008.177546	51.310002	280.778338	986.473619	388.727246	322.724957	954.969129	80.451782	335.065544	945.069465	350.811063	142.117350	998.314142	257.521492	128.990680	995.447722	193.986383	243.380080	871.563468	401.156742	248.524534	896.560855	28.054536	252.590251	749.554734	420.549777	260.630960	659.844520	413.839490	224.244607	582.041376	400.126298	297.164134	655.341304	404.490360	206.272117	473.480839	380.436650	221.216001	450.291678	272.165089	175.201244	353.339077	401.940249	188.748886	267.674515	382.012579	160.099395	186.642636	370.619086	217.281937	269.699630	354.595500	154.767201	99.840001	358.320205	199.954422	122.016884	273.207723	109.522072	65.727518	297.049867	382.179917	75.475898	334.590882	280.699439	43.228581	392.391690	303.970108	59.688669	276.967782	231.800442	764.055814	12.349576	245.336257	677.891354	17.342064	281.606801	674.270702	25.868491	212.840083	595.377614	29.545274	183.485772	477.261421	49.849184	204.451745	455.822905	159.843105	154.688136	99.295912	56.053871	171.151362	121.962744	141.105147	100.987507	58.898076	110.543429	310.766170	52.317599	132.996605	290.139492	51.064034	17.901239	160.874017	370.885224	23.961396	177.972453	285.982803	36.935558	150.475943	202.239291	37.976396	208.652683	286.280672	61.561759	380.376588	71.500820	69.499101	
756	3.7800	228.855667	1417.428067	398.160503	231.682178	1429.277815	43.839206	193.253422	1490.221048	218.118626	313.919258	1395.325422	224.565202	249.291992	1200.355411	576.620087	350.645388	1042.389068	767.642159	238.246278	1207.442105	-127.812709	334.942989	1070.159342	-328.542305	117.969283	964.785502	230.308323	270.187805	1008.169819	51.294484	280.783923	986.472761	388.714350	322.715052	954.972002	80.454155	335.053120	945.050012	350.819676	142.097931	998.312598	257.538096	128.971596	995.470872	193.990674	243.360246	871.557493	401.158620	248.526927	896.551148	28.067042	252.593487	749.543833	420.536269	260.626783	659.855764	413.839129	224.250913	582.035526	400.128327	297.160221	655.329851	404.489541	206.290088	473.492883	380.447727	221.204400	450.277689	272.172537	175.196812	353.336642	401.923659	188.731948	267.642497	381.998167	160.096617	186.628858	370.610105	217.299301	269.706385	354.602415	154.762350	99.819122	358.327022	199.969674	122.023343	273.185629	109.537678	65.749008	297.036449	382.171448	75.480015	334.582629	280.703795	43.228869	392.398499	303.978884	59.697175	276.979660	231.808348	764.058653	12.334515	245.343392	677.873522	17.361623	281.598075	674.269304	25.844557	212.843291	595.373405	29.529614	183.481729	477.266387	49.850976	204.438244	455.819961	159.832991	154.682478	99.283913	56.052579	171.163287	121.970388	141.116701	100.989663	58.899386	110.546974	310.778430	52.342818	132.997726	290.131589	51.056970	17.897367	160.881541	370.894617	23.947879	177.971934	285.997512	36.928961	150.473257	202.227315	37.981793	208.670465	286.285802	61.589918	380.379130	71.511781	69.487150	
757	3.7850	228.831820	1417.425637	398.180332	231.682688	1429.277671	43.841927	193.233649	1490.241327	218.126484	313.908219	1395.316187	224.562882	249.287273	1200.352142	576.609642	350.608847	1042.417183	767.642456	238.243828	1207.446949	-127.813812	334.935527	1070.160836	-328.547389	117.960592	964.788156	230.305806	270.177796	1008.173956	51.305725	280.771492	986.486596	388.737443	322.725677	954.976131	80.454299	335.050823	945.052861	350.820146	142.123577	998.373580	257.530850	128.977874	995.421469	193.985571	243.361241	871.550205	401.164315	248.539336	896.554080	28.062039	252.567364	749.570930	420.537761	260.626801	659.855770	413.839138	224.232741	582.030210	400.124672	297.159033	655.340415	404.499440	206.259100	473.465044	380.435618	221.224181	450.287167	272.187504	175.188821	353.327607	401.942575	188.732672	267.682613	382.012365	160.111343	186.650841	370.623255	217.289082	269.718212	354.585893	154.776893	99.833835	358.325811	199.958493	122.017809	273.199903	109.538177	65.719587	297.039736	382.184203	75.477732	334.580855	280.697561	43.232073	392.393131	303.971839	59.702789	276.951867	231.806406	764.049248	12.337483	245.337837	677.885327	17.340321	281.603712	674.279716	25.867328	212.850622	595.389555	29.520460	183.495783	477.254971	49.848627	204.469216	455.814425	159.835082	154.684078	99.290210	56.042495	171.125729	121.984145	141.117577	100.971684	58.912031	110.541772	310.773398	52.338163	132.990275	290.136260	51.072443	17.886921	160.869185	370.890533	23.952405	177.964202	285.984792	36.939629	150.492179	202.231876	37.984080	208.669730	286.276621	61.592519	380.386606	71.500925	69.494154	
